<svg width="199" height="178" viewBox="0 0 199 178" fill="none" xmlns="http://www.w3.org/2000/svg">
<g clip-path="url(#clip0_101_2)">
<path fill-rule="evenodd" clip-rule="evenodd" d="M59.9409 174.715L140.275 174.619C143.636 174.615 145.316 174.613 146.821 174.122C148.151 173.689 149.376 172.981 150.416 172.044C151.592 170.985 152.432 169.529 154.112 166.619L194.364 96.9006C196.053 93.9759 196.897 92.5136 197.226 90.9592C197.517 89.584 197.514 88.1628 197.219 86.7885C196.885 85.2352 196.036 83.7756 194.338 80.8565L194.338 80.8563L154.051 11.5891L154.051 11.5891C152.376 8.70843 151.538 7.26809 150.371 6.21807C149.338 5.28892 148.123 4.58524 146.802 4.15188C145.311 3.66214 143.644 3.65263 140.312 3.63362L59.775 3.17409C56.3886 3.15476 54.6955 3.1451 53.1788 3.6312C51.837 4.06127 50.6012 4.77007 49.5524 5.71114C48.367 6.77478 47.5204 8.24113 45.8273 11.1738L5.60242 80.8453C3.91732 83.764 3.07477 85.2233 2.74566 86.7747C2.45447 88.1473 2.45541 89.5658 2.74843 90.9381C3.07958 92.489 3.92406 93.9472 5.61299 96.8635L5.61305 96.8637L26.5341 132.989L94.642 132.817C102.284 132.797 108.496 138.977 108.515 146.62C108.534 154.262 102.355 160.473 94.712 160.493L42.5384 160.625L46.076 166.733C47.7623 169.645 48.6054 171.101 49.7837 172.159C50.8262 173.095 52.0538 173.802 53.387 174.233C54.8936 174.721 56.5759 174.719 59.9401 174.715L59.9403 174.715L59.9407 174.715L59.9409 174.715ZM40.015 110.481C39.9978 103.688 45.4909 98.167 52.2842 98.1498L107.636 98.0097C114.429 97.9925 119.95 103.486 119.967 110.279C119.985 117.072 114.492 122.593 107.698 122.61L52.3465 122.751C45.5532 122.768 40.0322 117.275 40.015 110.481ZM74.5306 67.9651C69.0111 67.9791 64.5479 72.4649 64.5619 77.9845C64.5758 83.5041 69.0617 87.9672 74.5812 87.9532L119.17 87.8404C124.69 87.8264 129.153 83.3406 129.139 77.821C129.125 72.3014 124.639 67.8383 119.12 67.8522L74.5306 67.9651ZM83.6171 49.3704C83.6052 44.7 87.3818 40.9043 92.0522 40.8925L128.953 40.7991C133.624 40.7873 137.419 44.5638 137.431 49.2342C137.443 53.9046 133.667 57.7003 128.996 57.7121L92.095 57.8055C87.4246 57.8174 83.6289 54.0408 83.6171 49.3704ZM109.101 16.9222C105.28 16.9319 102.19 20.0375 102.2 23.8587C102.21 27.68 105.315 30.7698 109.136 30.7602L138.35 30.6862C142.171 30.6765 145.261 27.571 145.251 23.7497C145.242 19.9285 142.136 16.8386 138.315 16.8483L109.101 16.9222Z" fill="white"/>
</g>
<defs>
<clipPath id="clip0_101_2">
<rect width="199" height="178" fill="white"/>
</clipPath>
</defs>
</svg>
