<?xml version="1.0" encoding="UTF-8"?> <svg xmlns="http://www.w3.org/2000/svg" xmlns:xlink="http://www.w3.org/1999/xlink" xmlns:xodm="http://www.corel.com/coreldraw/odm/2003" xml:space="preserve" width="340.939mm" height="108.494mm" version="1.1" style="shape-rendering:geometricPrecision; text-rendering:geometricPrecision; image-rendering:optimizeQuality; fill-rule:evenodd; clip-rule:evenodd" viewBox="0 0 5947.24 1892.54"> <defs> <style type="text/css"> .fil1 {fill:#4B4B4D;fill-rule:nonzero} .fil0 {fill:url(#id0)} </style> <linearGradient id="id0" gradientUnits="userSpaceOnUse" x1="459.52" y1="-0.01" x2="476.26" y2="1780.6"> <stop offset="0" style="stop-opacity:1; stop-color:#B44CAB"></stop> <stop offset="1" style="stop-opacity:1; stop-color:#68C7C5"></stop> </linearGradient> </defs> <g id="Слой_x0020_1"> <metadata id="CorelCorpID_0Corel-Layer"></metadata> <path class="fil0" d="M454.27 978.06l0 0c249.85,0 454.27,204.42 454.27,454.27 0,119.76 -0,239.52 -0,359.27 0,55.52 -45.43,100.95 -100.95,100.95l-0 0c-55.52,0 -100.95,-45.43 -100.95,-100.95 0,-119.76 0,-239.51 0,-359.27 0,-138.81 -113.57,-252.37 -252.37,-252.37l0 0c-138.8,0 -252.37,113.58 -252.37,252.37 0,119.76 0,239.51 0,359.27 0,55.52 -45.43,100.95 -100.95,100.95l-0 0c-55.52,0 -100.95,-45.43 -100.95,-100.95 0,-119.76 0,-239.51 0,-359.27 0,-249.85 204.42,-454.27 454.27,-454.27zm4.16 -978.06c250.88,0 454.27,203.38 454.27,454.27 0,250.88 -203.38,454.27 -454.27,454.27 -250.88,0 -454.26,-203.38 -454.26,-454.27 0,-250.88 203.38,-454.27 454.26,-454.27zm0 201.9c139.38,0 252.37,112.99 252.37,252.37 0,139.38 -112.99,252.37 -252.37,252.37 -139.38,0 -252.37,-112.99 -252.37,-252.37 0,-139.38 112.99,-252.37 252.37,-252.37z"></path> <path class="fil1" d="M1425.77 822.17c0,-15.33 3.06,-29.73 8.89,-43.22 5.82,-13.49 13.49,-25.13 23.29,-34.94 10.12,-9.81 21.76,-17.78 35.25,-23.6 13.49,-5.82 27.59,-8.58 42.61,-8.58 14.71,0 28.81,2.76 42.3,8.58 13.49,5.82 25.44,13.79 35.56,23.6 10.12,9.81 18.08,21.46 23.91,34.94 5.82,13.49 8.89,27.89 8.89,43.22 0,14.71 -3.06,28.51 -8.89,41.69 -5.82,13.18 -13.79,24.83 -23.91,34.64 -10.12,9.81 -22.07,17.47 -35.56,23.3 -13.49,5.82 -27.59,8.89 -42.3,8.89 -15.02,0 -29.12,-3.07 -42.61,-8.89 -13.49,-5.82 -25.13,-13.49 -35.25,-23.3 -9.81,-9.81 -17.47,-21.46 -23.29,-34.64 -5.82,-13.18 -8.89,-26.97 -8.89,-41.69zm209.66 960.02c0,13.49 -2.76,26.36 -7.97,38.62 -5.21,12.26 -12.26,22.68 -21.15,31.57 -8.89,8.89 -19.31,15.94 -31.27,21.15 -12.26,5.21 -25.13,7.97 -39.23,7.97 -13.79,0 -26.67,-2.76 -38.93,-7.97 -12.26,-5.21 -22.99,-12.26 -32.49,-21.15 -9.2,-8.89 -16.25,-19.31 -21.46,-31.57 -5.21,-12.26 -7.97,-25.14 -7.97,-38.62l0 -656.57c0,-13.49 2.76,-26.36 8.28,-38.32 5.52,-11.95 12.87,-22.38 22.07,-31.57 9.5,-9.19 20.23,-16.55 32.49,-21.76 12.26,-5.21 25.44,-7.66 39.85,-7.66 14.1,0 26.97,2.45 38.62,7.66 11.65,5.21 22.07,12.57 30.96,21.76 8.89,9.2 15.94,19.62 20.84,31.57 4.9,11.95 7.36,24.83 7.36,38.32l0 656.57zm385.3 1.84c0,27.59 -9.5,50.88 -28.2,69.58 -18.7,18.7 -41.99,27.89 -69.58,27.89 -13.79,0 -26.67,-2.76 -38.93,-7.97 -12.26,-5.21 -23.3,-11.95 -32.8,-20.54 -9.5,-8.58 -17.16,-19 -22.68,-30.96 -5.52,-11.95 -8.28,-24.52 -8.28,-38.01l0 -433.11c0,-45.98 9.2,-89.5 27.28,-130.27 18.09,-40.77 42.61,-76.32 74.18,-106.67 31.26,-30.35 67.43,-54.25 109.12,-72.03 41.38,-17.78 85.21,-26.67 131.19,-26.67 47.82,0 92.88,9.2 134.87,27.59 41.99,18.39 79.08,43.53 110.96,75.4 31.88,-31.88 69.27,-57.01 111.88,-75.4 42.61,-18.39 87.97,-27.59 135.79,-27.59 46.59,0 90.42,8.58 130.89,25.75 40.46,17.16 76.02,40.77 106.67,70.81 30.96,30.04 55.48,64.98 73.87,104.83 18.39,39.85 28.51,82.45 30.35,127.82 0,1.23 0,2.45 0,3.98 0,1.53 0,3.07 0,4.29l0 431.27c0,13.49 -2.76,26.05 -7.97,38.01 -5.21,11.95 -12.26,22.38 -21.15,30.96 -8.89,8.58 -19.31,15.33 -30.96,20.54 -11.65,5.21 -24.22,7.97 -37.7,7.97 -13.79,0 -26.67,-2.45 -39.54,-7.66 -12.57,-5.21 -23.29,-12.26 -32.8,-20.84 -9.19,-8.58 -16.55,-18.7 -22.07,-30.65 -5.52,-11.95 -8.28,-24.83 -8.28,-38.32l0 -433.42c-0.61,-19.62 -4.9,-37.4 -12.87,-53.95 -7.97,-16.55 -18.39,-30.96 -31.57,-42.91 -13.18,-11.95 -28.2,-21.15 -45.06,-27.89 -16.55,-6.74 -34.94,-10.12 -54.25,-10.12 -19.62,0 -38.32,3.68 -56.09,11.03 -17.78,7.36 -33.1,17.16 -46.29,29.73 -13.18,12.57 -23.6,27.28 -31.26,44.14 -7.66,16.86 -11.34,34.94 -11.34,54.56l0 428.82c0,27.59 -9.5,50.88 -28.2,69.58 -18.7,18.7 -41.99,27.89 -69.58,27.89 -13.79,0 -26.67,-2.45 -38.93,-7.66 -12.26,-5.21 -23.29,-12.26 -32.8,-20.84 -9.5,-8.58 -17.16,-18.7 -22.68,-30.65 -5.52,-11.95 -8.28,-24.83 -8.28,-38.32l0 -432.5c-0.61,-19.62 -4.6,-37.7 -12.26,-54.56 -7.66,-16.86 -18.09,-31.27 -30.96,-43.22 -12.57,-11.95 -27.59,-21.15 -44.75,-27.89 -17.16,-6.74 -35.56,-10.12 -54.87,-10.12 -19.62,0 -38.32,3.37 -55.48,10.42 -17.47,7.05 -32.8,16.86 -45.98,29.43 -13.18,12.57 -23.6,27.28 -31.26,43.83 -7.66,16.55 -11.34,34.02 -11.34,53.03l0 431.58zm1317.73 -240.93c7.97,22.68 19.31,43.22 33.72,61.92 14.41,18.7 30.96,34.64 49.96,47.82 19,13.18 39.85,23.3 62.53,30.35 22.68,7.05 46.59,10.73 71.72,10.73 63.14,0 112.8,-16.55 148.97,-49.66 12.26,-8.58 24.22,-15.02 35.86,-19 11.65,-3.98 22.68,-5.82 33.1,-5.82 17.16,0 32.49,4.29 45.98,13.18 13.49,8.89 24.52,20.54 33.1,34.64 6.13,9.81 10.73,20.23 13.49,31.57 2.76,11.34 3.37,22.99 1.84,34.64 -1.53,11.65 -5.21,22.99 -11.03,34.33 -5.82,11.34 -14.71,21.76 -26.36,30.96 -13.49,12.26 -28.81,23.91 -45.98,35.25 -17.17,11.34 -36.78,21.46 -59.16,30.04 -22.38,8.58 -47.51,15.33 -75.4,20.54 -27.89,5.21 -59.47,7.97 -94.41,7.97 -60.69,0 -117.7,-11.65 -171.04,-34.64 -53.34,-22.99 -99.93,-54.26 -139.77,-94.1 -39.85,-39.85 -71.42,-86.44 -94.71,-139.47 -23.3,-53.03 -34.94,-109.73 -34.94,-170.42 0,-60.69 11.65,-117.7 34.94,-171.04 23.3,-53.33 54.87,-99.92 94.71,-139.47 39.85,-39.54 86.44,-70.81 139.77,-93.79 53.33,-22.99 110.35,-34.33 171.04,-34.33 60.08,0 116.78,11.34 169.81,34.02 53.03,22.68 99.62,53.33 139.77,92.26 40.15,38.93 72.03,84.91 95.64,137.63 23.6,52.72 35.56,109.12 36.17,169.2 0,28.2 -8.89,50.88 -26.97,68.35 -18.08,17.47 -41.99,26.36 -71.42,26.36l-560.93 0zm454.26 -165.52c-6.74,-25.13 -17.16,-47.51 -31.57,-67.74 -14.41,-19.92 -31.88,-37.09 -52.11,-51.19 -20.23,-14.1 -42.91,-24.52 -68.05,-31.88 -25.13,-7.36 -51.8,-11.03 -80,-11.03 -28.2,0 -54.56,3.68 -79.39,11.34 -24.83,7.66 -47.2,18.7 -67.13,33.1 -19.92,14.1 -37.09,31.27 -51.19,51.19 -14.1,19.62 -24.52,41.69 -31.27,66.21l460.7 0zm282.31 76.32c0,-60.69 11.65,-117.7 34.94,-170.73 23.3,-53.03 54.87,-99.31 94.71,-139.16 40.16,-39.85 86.44,-71.42 139.47,-94.41 53.33,-22.99 109.73,-34.33 170.12,-34.33 60.69,0 117.7,11.34 171.04,34.33 53.33,22.99 99.92,54.56 139.47,94.41 39.54,39.85 70.81,86.13 93.49,139.16 22.68,53.03 34.02,110.04 34.02,170.73l0 325.52c0,14.1 -2.76,27.28 -7.97,39.54 -5.21,12.26 -12.26,22.99 -21.46,32.19 -9.5,9.19 -20.23,16.55 -32.8,22.07 -12.88,5.52 -26.06,8.28 -40.46,8.28 -23.91,0 -44.14,-7.05 -61,-21.15 -16.55,-14.41 -27.59,-32.18 -33.1,-53.64 -34.94,26.36 -72.65,47.2 -113.41,62.84 -40.77,15.33 -83.68,22.99 -128.43,22.99 -60.08,0 -116.48,-11.65 -169.51,-34.64 -53.03,-22.99 -99.62,-54.26 -139.47,-94.1 -39.85,-39.85 -71.42,-86.44 -94.71,-139.77 -23.3,-53.33 -34.94,-110.04 -34.94,-170.12zm200.46 0c0,32.49 6.13,63.14 18.7,91.96 12.57,29.12 29.73,54.56 51.49,76.02 21.76,21.76 46.9,38.93 75.71,51.5 28.81,12.57 59.77,18.7 92.88,18.7 32.8,0 64.06,-6.13 92.88,-18.7 29.12,-12.57 54.56,-29.73 75.71,-51.5 21.46,-21.46 38.32,-46.9 50.58,-76.02 12.26,-28.81 18.39,-59.47 18.39,-91.96 0,-33.1 -6.13,-64.06 -18.39,-92.88 -12.26,-29.12 -29.12,-54.25 -50.58,-75.71 -21.15,-21.46 -46.59,-38.32 -75.71,-50.88 -28.81,-12.57 -60.08,-18.7 -92.88,-18.7 -32.49,0 -63.45,6.13 -92.26,18.7 -29.12,12.57 -54.56,29.43 -76.32,50.88 -21.76,21.46 -38.93,46.59 -51.49,75.71 -12.57,28.81 -18.7,59.77 -18.7,92.88zm1671.76 331.04c0,14.1 -2.76,26.97 -7.97,38.93 -5.21,11.95 -11.95,22.38 -20.54,31.26 -8.89,8.89 -19,15.94 -30.96,20.84 -12.26,4.91 -24.83,7.36 -38.32,7.36 -13.79,0 -26.67,-2.45 -39.54,-7.36 -12.57,-4.9 -23.29,-11.65 -32.8,-20.54 -9.19,-8.89 -16.55,-19.31 -22.07,-31.27 -5.52,-11.95 -8.28,-25.13 -8.28,-39.23l0 -341.46c0,-4.91 0.61,-8.58 1.84,-11.03 -1.22,-30.04 -7.36,-58.24 -18.39,-84.6 -11.03,-26.05 -26.05,-49.04 -45.06,-68.66 -19,-19.62 -41.07,-35.25 -66.51,-46.59 -25.44,-11.34 -53.64,-16.86 -84.29,-16.86 -31.26,0 -60.08,5.52 -86.44,16.86 -26.36,11.34 -48.74,27.28 -67.43,47.51 -18.7,20.23 -33.41,43.83 -44.14,71.11 -10.73,27.28 -16.25,56.4 -16.25,87.67l0 346.06c0,14.1 -2.45,27.28 -7.36,39.23 -4.9,11.95 -11.95,22.38 -20.84,31.27 -8.89,8.89 -19.31,15.63 -30.96,20.54 -11.65,4.91 -24.52,7.36 -38.62,7.36 -13.79,0 -26.67,-2.45 -38.93,-7.36 -12.26,-4.9 -23.29,-11.95 -32.8,-20.84 -9.5,-8.89 -17.16,-19.31 -22.68,-31.26 -5.52,-11.95 -8.28,-24.83 -8.28,-38.93l0 -346.67c0,-58.85 10.73,-114.02 31.88,-165.21 21.15,-51.19 50.27,-95.94 87.36,-134.26 37.09,-38.32 80.92,-68.35 131.5,-90.42 50.88,-22.07 105.14,-33.1 163.68,-33.1 58.85,0 113.41,11.03 163.68,33.1 50.27,22.07 93.79,52.11 130.88,90.42 36.78,38.32 65.6,83.07 86.75,134.26 21.15,51.19 31.88,106.36 31.88,165.21l0 346.67z"></path> </g> </svg> 