<svg width="177" height="69" viewBox="0 0 177 69" fill="none" xmlns="http://www.w3.org/2000/svg"><path d="M110.21 23.3423C110.209 24.6012 109.842 25.8317 109.153 26.8783C108.465 27.9249 107.487 28.7405 106.343 29.222C105.199 29.7035 103.94 29.8292 102.725 29.5834C101.511 29.3376 100.395 28.7311 99.5198 27.8408C98.6443 26.9505 98.0481 25.8162 97.8067 24.5814C97.5653 23.3467 97.6894 22.0668 98.1633 20.9038C98.6373 19.7407 99.4399 18.7467 100.47 18.0473C101.499 17.3479 102.71 16.9746 103.948 16.9746C104.771 16.9749 105.586 17.1401 106.347 17.4608C107.107 17.7816 107.798 18.2516 108.379 18.8439C108.961 19.4362 109.422 20.1393 109.736 20.9128C110.05 21.6864 110.211 22.5154 110.21 23.3522" fill="#00B5D8"/><path d="M126.909 23.3423C126.909 24.6018 126.541 25.833 125.853 26.8802C125.165 27.9274 124.186 28.7435 123.042 29.2254C121.897 29.7073 120.638 29.8333 119.423 29.5874C118.208 29.3416 117.092 28.7349 116.216 27.8442C115.34 26.9535 114.743 25.8187 114.502 24.5833C114.26 23.348 114.385 22.0676 114.859 20.9041C115.334 19.7406 116.137 18.7462 117.167 18.0468C118.197 17.3473 119.408 16.9742 120.647 16.9746C121.47 16.9749 122.286 17.1401 123.046 17.4608C123.806 17.7816 124.497 18.2516 125.078 18.8439C125.66 19.4362 126.121 20.1393 126.435 20.9128C126.749 21.6864 126.91 22.5154 126.909 23.3522" fill="#A31781"/><path d="M143.605 6.36567C143.605 7.62469 143.238 8.85542 142.55 9.90225C141.862 10.9491 140.884 11.765 139.74 12.2468C138.596 12.7286 137.337 12.8547 136.122 12.609C134.907 12.3634 133.792 11.7571 132.916 10.8669C132.04 9.97663 131.444 8.84237 131.202 7.60756C130.961 6.37274 131.085 5.09281 131.559 3.92964C132.033 2.76646 132.835 1.77228 133.865 1.07281C134.895 0.37334 136.105 0 137.344 0C139.004 0 140.597 0.670667 141.771 1.86446C142.945 3.05826 143.605 4.67739 143.605 6.36567Z" fill="#A31781"/><path d="M160.302 6.36567C160.302 7.62469 159.935 8.85542 159.247 9.90225C158.559 10.9491 157.581 11.765 156.437 12.2468C155.293 12.7286 154.034 12.8547 152.819 12.609C151.605 12.3634 150.489 11.7571 149.613 10.8669C148.738 9.97663 148.141 8.84237 147.9 7.60756C147.658 6.37274 147.782 5.09281 148.256 3.92964C148.73 2.76646 149.532 1.77228 150.562 1.07281C151.592 0.37334 152.802 0 154.041 0C155.701 0 157.294 0.670667 158.468 1.86446C159.643 3.05826 160.302 4.67739 160.302 6.36567Z" fill="#00B5D8"/><path d="M143.605 23.3423C143.605 24.6012 143.237 25.8317 142.549 26.8783C141.861 27.9249 140.883 28.7405 139.738 29.222C138.594 29.7035 137.335 29.8292 136.121 29.5834C134.906 29.3376 133.791 28.7311 132.915 27.8408C132.04 26.9505 131.444 25.8162 131.202 24.5814C130.961 23.3467 131.085 22.0668 131.559 20.9038C132.033 19.7407 132.835 18.7467 133.865 18.0473C134.895 17.3479 136.105 16.9746 137.344 16.9746C138.167 16.9749 138.982 17.1401 139.742 17.4608C140.502 17.7816 141.193 18.2516 141.775 18.8439C142.356 19.4362 142.817 20.1393 143.131 20.9128C143.445 21.6864 143.606 22.5154 143.605 23.3522" fill="#FFD600"/><path d="M160.302 23.3423C160.302 24.6012 159.934 25.8317 159.246 26.8783C158.558 27.9249 157.58 28.7405 156.436 29.222C155.291 29.7035 154.033 29.8292 152.818 29.5834C151.604 29.3376 150.488 28.7311 149.613 27.8408C148.737 26.9505 148.141 25.8162 147.899 24.5814C147.658 23.3467 147.782 22.0668 148.256 20.9038C148.73 19.7407 149.533 18.7467 150.562 18.0473C151.592 17.3479 152.802 16.9746 154.041 16.9746C154.864 16.9749 155.679 17.1401 156.439 17.4608C157.2 17.7816 157.89 18.2516 158.472 18.8439C159.053 19.4362 159.514 20.1393 159.828 20.9128C160.143 21.6864 160.304 22.5154 160.302 23.3522" fill="#006AB4"/><path d="M126.909 40.3168C126.909 41.5764 126.542 42.8078 125.854 43.8553C125.166 44.9028 124.188 45.7192 123.043 46.2014C121.899 46.6836 120.639 46.8099 119.424 46.5643C118.209 46.3186 117.092 45.7121 116.216 44.8215C115.34 43.9308 114.744 42.796 114.502 41.5606C114.26 40.3252 114.385 39.0447 114.859 37.8811C115.333 36.7175 116.136 35.723 117.167 35.0235C118.197 34.3239 119.408 33.9508 120.647 33.9512C122.308 33.9512 123.901 34.6218 125.075 35.8156C126.249 37.0094 126.909 38.6286 126.909 40.3168Z" fill="#006AB4"/><path d="M110.209 57.2932C110.207 58.5517 109.838 59.7812 109.149 60.8265C108.459 61.8717 107.48 62.6858 106.336 63.1658C105.192 63.6457 103.933 63.7701 102.719 63.5231C101.505 63.2761 100.391 62.6689 99.5163 61.7782C98.6418 60.8875 98.0466 59.7532 97.806 58.5187C97.5653 57.2842 97.69 56.0049 98.1643 54.8424C98.6385 53.6799 99.4411 52.6865 100.471 51.9875C101.5 51.2886 102.71 50.9155 103.948 50.9155C104.771 50.9158 105.586 51.081 106.347 51.4018C107.107 51.7225 107.798 52.1925 108.379 52.7848C108.961 53.3771 109.422 54.0802 109.736 54.8538C110.05 55.6273 110.211 56.4563 110.209 57.2932Z" fill="#FFD600"/><path d="M143.605 40.3168C143.605 41.5758 143.238 42.8066 142.55 43.8534C141.862 44.9002 140.884 45.7161 139.74 46.198C138.596 46.6798 137.337 46.8058 136.122 46.5602C134.907 46.3146 133.792 45.7083 132.916 44.818C132.04 43.9278 131.444 42.7935 131.202 41.5587C130.961 40.3239 131.085 39.044 131.559 37.8808C132.033 36.7176 132.835 35.7234 133.865 35.024C134.895 34.3245 136.105 33.9512 137.344 33.9512C139.004 33.9512 140.597 34.6218 141.771 35.8156C142.945 37.0094 143.605 38.6286 143.605 40.3168Z" fill="#00B5D8"/><path d="M160.302 40.3168C160.302 41.5758 159.935 42.8066 159.247 43.8534C158.559 44.9002 157.581 45.7161 156.437 46.198C155.293 46.6798 154.034 46.8058 152.819 46.5602C151.605 46.3146 150.489 45.7083 149.613 44.818C148.738 43.9278 148.141 42.7935 147.9 41.5587C147.658 40.3239 147.782 39.044 148.256 37.8808C148.73 36.7176 149.532 35.7234 150.562 35.024C151.592 34.3245 152.802 33.9512 154.041 33.9512C155.701 33.9512 157.294 34.6218 158.468 35.8156C159.643 37.0094 160.302 38.6286 160.302 40.3168Z" fill="#FFD600"/><path d="M143.605 57.2932C143.603 58.5517 143.233 59.7812 142.544 60.8265C141.855 61.8717 140.876 62.6858 139.732 63.1658C138.587 63.6457 137.329 63.7701 136.115 63.5231C134.901 63.2761 133.786 62.6689 132.912 61.7782C132.037 60.8875 131.442 59.7532 131.201 58.5187C130.961 57.2842 131.086 56.0049 131.56 54.8424C132.034 53.6799 132.837 52.6865 133.866 51.9875C134.895 51.2886 136.106 50.9155 137.344 50.9155C138.167 50.9158 138.982 51.081 139.742 51.4018C140.502 51.7225 141.193 52.1925 141.775 52.7848C142.356 53.3771 142.817 54.0802 143.131 54.8538C143.445 55.6273 143.606 56.4563 143.605 57.2932Z" fill="#A31781"/><path d="M160.302 57.2932C160.3 58.5517 159.931 59.7812 159.241 60.8265C158.552 61.8717 157.573 62.6858 156.429 63.1658C155.284 63.6457 154.026 63.7701 152.812 63.5231C151.598 63.2761 150.484 62.6689 149.609 61.7782C148.735 60.8875 148.139 59.7532 147.899 58.5187C147.658 57.2842 147.783 56.0049 148.257 54.8424C148.731 53.6799 149.534 52.6865 150.563 51.9875C151.593 51.2886 152.803 50.9155 154.041 50.9155C154.864 50.9158 155.679 51.081 156.439 51.4018C157.2 51.7225 157.89 52.1925 158.472 52.7848C159.053 53.3771 159.514 54.0802 159.828 54.8538C160.143 55.6273 160.304 56.4563 160.302 57.2932Z" fill="#006AB4"/><path d="M177 23.3423C176.999 24.6012 176.632 25.8317 175.943 26.8783C175.255 27.9249 174.277 28.7405 173.133 29.222C171.989 29.7035 170.73 29.8292 169.515 29.5834C168.301 29.3376 167.185 28.7311 166.31 27.8408C165.434 26.9505 164.838 25.8162 164.597 24.5814C164.355 23.3467 164.479 22.0668 164.953 20.9038C165.427 19.7407 166.23 18.7467 167.26 18.0473C168.289 17.3479 169.5 16.9746 170.738 16.9746C171.561 16.9749 172.376 17.1401 173.137 17.4608C173.897 17.7816 174.588 18.2516 175.169 18.8439C175.751 19.4362 176.212 20.1393 176.526 20.9128C176.84 21.6864 177.001 22.5154 177 23.3522" fill="#00B5D8"/><path d="M177 40.3168C177 41.5758 176.632 42.8066 175.944 43.8534C175.256 44.9002 174.278 45.7161 173.134 46.198C171.99 46.6798 170.731 46.8058 169.516 46.5602C168.302 46.3146 167.186 45.7083 166.311 44.818C165.435 43.9278 164.838 42.7935 164.597 41.5587C164.355 40.3239 164.479 39.044 164.953 37.8808C165.427 36.7176 166.23 35.7234 167.259 35.024C168.289 34.3245 169.5 33.9512 170.738 33.9512C172.399 33.9512 173.991 34.6218 175.166 35.8156C176.34 37.0094 177 38.6286 177 40.3168Z" fill="#A31781"/><path d="M21.3687 63.7565C21.9123 63.2183 22.3706 62.5978 22.7273 61.917C23.0939 61.2129 23.3706 60.4641 23.5506 59.6888C23.7304 58.9047 23.8211 58.1023 23.8212 57.2972C23.8365 55.6782 23.518 54.0739 22.8861 52.5877C22.2862 51.1998 21.4197 49.9476 20.3375 48.9046C19.2397 47.8636 17.9552 47.0469 16.554 46.4991C15.0729 45.9205 13.4984 45.6291 11.9118 45.6401C10.3282 45.6272 8.75591 45.9109 7.27349 46.4771C5.86952 47.0153 4.58282 47.8278 3.48601 48.8687C2.40024 49.9156 1.53344 51.1743 0.937494 52.5698C0.30369 54.0603 -0.0155391 55.6694 0.000425208 57.2932C-0.0246746 58.9694 0.287539 60.633 0.917889 62.1821C1.50266 63.578 2.37116 64.8325 3.4664 65.8631C4.5774 66.896 5.8871 67.6832 7.31269 68.175C8.85026 68.7057 10.4645 68.9705 12.0882 68.9583H23.6545L26.0266 63.7605L21.3687 63.7565ZM17.0362 59.5493C16.4739 60.9199 15.4076 62.0132 14.0643 62.5966C13.3811 62.8865 12.6482 63.0357 11.9079 63.0357C11.1676 63.0357 10.4346 62.8865 9.75142 62.5966C9.09334 62.3051 8.49487 61.8907 7.98707 61.3749C6.92783 60.2877 6.33359 58.8194 6.33359 57.2892C6.33359 55.759 6.92783 54.2907 7.98707 53.2035C8.49509 52.6875 9.09347 52.2725 9.75142 51.9798C10.4343 51.6886 11.1673 51.5385 11.9079 51.5385C12.6484 51.5385 13.3815 51.6886 14.0643 51.9798C14.7222 52.2725 15.3206 52.6875 15.8286 53.2035C16.6141 54.0263 17.1461 55.0644 17.3593 56.1903C17.5724 57.3162 17.4574 58.4809 17.0284 59.5413" fill="#192A67"/><path d="M39.9708 46.1699H35.1384L25.4521 68.958H32.2547L33.9897 64.4717H41.0098L42.8036 68.958H49.7198L39.9708 46.1699ZM38.8161 58.9112H36.052L37.4243 55.3338L38.8161 58.9112Z" fill="#192A67"/><path d="M59.3157 63.0368L68.7824 51.3916V46.1699H51.4624V51.9058H60.7311L51.0801 63.547V68.952H68.0806L70.6664 63.0368H59.3157Z" fill="#192A67"/><path d="M84.4923 46.1699H79.656L69.9697 68.958H76.7723L78.5092 64.4717H85.5274L87.3231 68.958H94.2374L84.4923 46.1699ZM83.3376 58.9112H80.5715L81.9438 55.3338L83.3376 58.9112Z" fill="#192A67"/><path d="M113.507 63.7564C114.051 63.2181 114.509 62.5976 114.866 61.9169C115.233 61.2128 115.509 60.464 115.689 59.6887C115.869 58.9045 115.959 58.1021 115.96 57.2971C115.975 55.678 115.657 54.0737 115.025 52.5876C114.425 51.1997 113.558 49.9475 112.476 48.9045C111.378 47.8634 110.094 47.0467 108.693 46.4989C107.212 45.9206 105.638 45.6292 104.052 45.6399C102.468 45.6296 100.896 45.9161 99.4141 46.485C98.0107 47.0242 96.7242 47.8366 95.6267 48.8766C94.5403 49.9229 93.6734 51.1818 93.0782 52.5776C92.4457 54.0658 92.1259 55.6719 92.1391 57.2931C92.1137 58.9694 92.4266 60.6333 93.0586 62.1819C93.6446 63.5772 94.5129 64.8314 95.6071 65.863C96.7202 66.8935 98.0311 67.6786 99.4573 68.1689C100.993 68.7012 102.606 68.968 104.229 68.9582H115.272L117.646 63.7604L113.507 63.7564ZM109.175 59.5492C108.611 60.9187 107.545 62.0115 106.203 62.5965C105.52 62.8866 104.787 63.0359 104.047 63.0359C103.306 63.0359 102.573 62.8866 101.89 62.5965C100.548 62.013 99.4815 60.9206 98.9182 59.5511C98.4798 58.4918 98.3606 57.3241 98.5756 56.1959C98.7906 55.0677 99.3301 54.0297 100.126 53.2134C100.634 52.6976 101.232 52.2826 101.89 51.9897C102.573 51.6987 103.306 51.5489 104.047 51.5489C104.787 51.5489 105.52 51.6987 106.203 51.9897C106.861 52.2823 107.459 52.6973 107.967 53.2134C108.753 54.0361 109.285 55.0742 109.498 56.2002C109.711 57.3261 109.596 58.4908 109.167 59.5511" fill="#192A67"/><path d="M119.487 63.9199H120.399L122.571 69.0001H121.33L120.899 67.9239H118.958L118.541 69.0001H117.327L119.487 63.9199ZM119.911 65.3967L119.303 66.9752H120.525L119.911 65.3967Z" fill="#192A67"/><path d="M124.159 63.9199H123.06V69.0001H124.159V63.9199Z" fill="#192A67"/><path d="M125.162 63.918H127.095C127.338 63.9171 127.581 63.9425 127.818 63.9937C128.032 64.0386 128.236 64.1245 128.418 64.2468C128.593 64.365 128.735 64.5279 128.828 64.7192C128.937 64.9508 128.99 65.2059 128.981 65.4626C128.99 65.7901 128.893 66.1117 128.705 66.3774C128.508 66.6367 128.22 66.8077 127.901 66.8537L129.171 69.0002H127.85L126.807 66.9653H126.262V68.9962H125.162V63.918ZM126.262 66.0206H126.913C127.011 66.0206 127.109 66.0206 127.226 66.0107C127.329 66.0059 127.43 65.9844 127.526 65.9469C127.614 65.912 127.691 65.8534 127.748 65.7775C127.812 65.683 127.843 65.5693 127.836 65.4546C127.841 65.3462 127.815 65.2386 127.76 65.1457C127.71 65.0713 127.642 65.011 127.564 64.9703C127.476 64.9281 127.383 64.9005 127.287 64.8886C127.187 64.8736 127.086 64.8662 126.985 64.8667H126.264L126.262 66.0206Z" fill="#192A67"/></svg>